<svg width="64" height="64" viewBox="0 0 64 64" fill="none" xmlns="http://www.w3.org/2000/svg">
<path d="M41.5802 8.0725C39.1477 5.44625 35.7501 4 32.0001 4C28.2301 4 24.8214 5.4375 22.4001 8.0475C19.9526 10.6862 18.7601 14.2725 19.0401 18.145C19.5951 25.785 25.4089 32 32.0001 32C38.5914 32 44.3952 25.7862 44.9589 18.1475C45.2427 14.31 44.0427 10.7313 41.5802 8.0725Z" fill="#898989"/>
<path d="M53.9997 60H9.99974C9.42382 60.0075 8.85347 59.8865 8.33019 59.6458C7.80692 59.4052 7.34387 59.0509 6.97474 58.6087C6.16224 57.6375 5.83474 56.3112 6.07724 54.97C7.13224 49.1175 10.4247 44.2012 15.5997 40.75C20.1972 37.6862 26.021 36 31.9997 36C37.9785 36 43.8022 37.6875 48.3997 40.75C53.5747 44.2 56.8672 49.1162 57.9222 54.9687C58.1647 56.31 57.8372 57.6362 57.0247 58.6075C56.6557 59.0499 56.1927 59.4044 55.6694 59.6453C55.1462 59.8862 54.5758 60.0073 53.9997 60Z" fill="#898989"/>
</svg>
