<svg width="12" height="14" viewBox="0 0 12 14" fill="none" xmlns="http://www.w3.org/2000/svg">
<path d="M6.18039 6.64824C6.08068 6.53429 5.91894 6.53429 5.81936 6.64824L1.15978 11.9735C1.04923 12.0998 0.895666 12.134 0.748712 12.0642C0.599603 11.9934 0.510634 11.8404 0.510634 11.6545V2.0545C0.510634 1.86818 0.599368 1.71601 0.747962 1.64717C0.893627 1.57962 1.04681 1.61696 1.1603 1.75075L3.90486 4.87309C4.00494 4.98688 4.16656 4.98661 4.26601 4.87221C4.36559 4.75783 4.3652 4.57312 4.26523 4.45946L1.52375 1.34093C1.26741 1.03863 0.896556 0.94876 0.55622 1.10634C0.213071 1.26523 0 1.62866 0 2.05466V11.6547C0 12.0784 0.212039 12.4418 0.553407 12.6033C0.667525 12.6574 0.785369 12.6838 0.901291 12.6838C1.12941 12.6838 1.35014 12.5814 1.52082 12.3861L6.18041 7.06098C6.28009 6.9469 6.28009 6.76218 6.18039 6.64824Z" fill="black"/>
<path d="M11.9251 6.64831C11.8254 6.53436 11.6638 6.53436 11.5641 6.64831L6.90453 11.9735C6.73986 12.1617 6.54542 12.0907 6.48964 12.0643C6.43461 12.0383 6.25526 11.933 6.25526 11.6692V2.0546C6.25526 1.86828 6.344 1.71611 6.49271 1.6474C6.63863 1.57956 6.79156 1.61706 6.90493 1.75085L9.64961 4.87305C9.74957 4.98687 9.91105 4.98641 10.0108 4.87217C10.1101 4.75779 10.1097 4.57308 10.0099 4.45943L7.26837 1.34087C7.01215 1.03856 6.6417 0.948564 6.30085 1.10628C5.95782 1.26517 5.74463 1.62844 5.74463 2.0546V11.6692C5.74463 12.0852 5.95526 12.4431 6.29433 12.6035C6.40922 12.6578 6.52782 12.6845 6.64426 12.6845C6.87315 12.6845 7.09437 12.5819 7.26559 12.3861L11.9252 7.06105C12.0248 6.94697 12.0248 6.76225 11.9251 6.64831Z" fill="black"/>
</svg>
