<svg width="12" height="14" viewBox="0 0 12 14" fill="none" xmlns="http://www.w3.org/2000/svg">
<path d="M5.81961 7.35176C5.91932 7.46571 6.08106 7.46571 6.18064 7.35176L10.8402 2.02654C10.9508 1.90019 11.1043 1.86604 11.2513 1.93579C11.4004 2.00656 11.4894 2.15958 11.4894 2.34548L11.4894 11.9455C11.4894 12.1318 11.4006 12.284 11.252 12.3528C11.1064 12.4204 10.9532 12.383 10.8397 12.2492L8.09514 9.12691C7.99506 9.01312 7.83344 9.01339 7.73399 9.12779C7.63441 9.24217 7.6348 9.42688 7.73477 9.54054L10.4763 12.6591C10.7326 12.9614 11.1034 13.0512 11.4438 12.8937C11.7869 12.7348 12 12.3713 12 11.9453L12 2.34532C12 1.92162 11.788 1.55822 11.4466 1.3967C11.3325 1.34256 11.2146 1.31615 11.0987 1.31615C10.8706 1.31615 10.6499 1.41858 10.4792 1.61393L5.81959 6.93902C5.71991 7.0531 5.71991 7.23782 5.81961 7.35176Z" fill="black"/>
<path d="M0.0748663 7.35169C0.17457 7.46564 0.336195 7.46564 0.435899 7.35169L5.09547 2.02647C5.26014 1.83827 5.45458 1.90931 5.51036 1.93572C5.56539 1.9617 5.74474 2.06702 5.74474 2.33081L5.74474 11.9454C5.74474 12.1317 5.656 12.2839 5.50729 12.3526C5.36137 12.4204 5.20844 12.3829 5.09507 12.2491L2.35039 9.12695C2.25043 9.01313 2.08895 9.01359 1.98925 9.12783C1.88992 9.24221 1.89032 9.42692 1.99014 9.54057L4.73163 12.6591C4.98785 12.9614 5.3583 13.0514 5.69915 12.8937C6.04218 12.7348 6.25537 12.3716 6.25537 11.9454L6.25537 2.33078C6.25537 1.91482 6.04474 1.55694 5.70567 1.39647C5.59078 1.3422 5.47218 1.31549 5.35574 1.31549C5.12685 1.31549 4.90563 1.41806 4.73441 1.61386L0.0748434 6.93895C-0.0248365 7.05303 -0.024837 7.23775 0.0748663 7.35169Z" fill="black"/>
</svg>
